PathFileType	4	(X/Y/Z)	C:/Users/opensim2020/Desktop/walking_exp_matlab/subject02_walking06_straight_02.trc																																																																																																																									
DataRate	CameraRate	NumFrames	NumMarkers	Units	OrigDataRate	OrigDataStartFrame	OrigNumFrames																																																																																																																					
100	100	4	41	mm	100	1432	183																																																																																																																					
Frame#	Time	LFHD			RFHD			LBHD			RBHD			C7			T10			CLAV			STRN			RBAK			LSHO			LUPA			LELB			LFRM			LWRA			LWRB			LFIN			RSHO			RUPA			RELB			RFRM			RWRA			RWRB			RFIN			LASI			RASI			LPSI			RPSI			LTHI			LKNE			LTIB			LANK			LHEE			LTOE			RTHI			RKNE			RTIB			RANK			RHEE			RTOE			*39			*40		
		X1	Y1	Z1	X2	Y2	Z2	X3	Y3	Z3	X4	Y4	Z4	X5	Y5	Z5	X6	Y6	Z6	X7	Y7	Z7	X8	Y8	Z8	X9	Y9	Z9	X10	Y10	Z10	X11	Y11	Z11	X12	Y12	Z12	X13	Y13	Z13	X14	Y14	Z14	X15	Y15	Z15	X16	Y16	Z16	X17	Y17	Z17	X18	Y18	Z18	X19	Y19	Z19	X20	Y20	Z20	X21	Y21	Z21	X22	Y22	Z22	X23	Y23	Z23	X24	Y24	Z24	X25	Y25	Z25	X26	Y26	Z26	X27	Y27	Z27	X28	Y28	Z28	X29	Y29	Z29	X30	Y30	Z30	X31	Y31	Z31	X32	Y32	Z32	X33	Y33	Z33	X34	Y34	Z34	X35	Y35	Z35	X36	Y36	Z36	X37	Y37	Z37	X38	Y38	Z38	X39	Y39	Z39	X40	Y40	Z40	X41	Y41	Z41
																																																																																																																												
1	0	-756.26709	1757.33313	975.80499	-762.82611	1738.01709	1118.86951	-880.54297	1672.21899	960.24188	-898.39514	1650.41052	1101.16016	-931.79272	1536.56409	1032.50183	-991.11224	1263.79236	1046.7572	-793.87518	1465.08923	1024.19592	-746.36249	1292.24646	1042.73621	-992.94684	1368.78503	1104.44104	-859.96881	1503.35974	853.46918	-904.07233	1309.0376	770.35358	-929.66479	1171.80115	755.37177	-944.92291	1041.84766	735.95648	-913.92133	905.97424	759.73669	-957.97919	919.60577	726.34955	-952.33246	853.35455	719.51898	-854.59222	1509.92065	1218.05322	-863.39935	1328.55688	1322.26697	-827.35284	1186.76343	1355.54871	-771.25037	1080.0708	1374.89551	-697.7215	967.53906	1353.99609	-737.73206	955.25098	1392.4491	-685.18311	905.57739	1393.6781	-763.02148	997.16077	926.1908	-776.59802	980.58917	1180.43115	-974.92969	1046.31897	993.65936	-984.21552	1048.0769	1108.94104	-756.07233	695.49628	861.34406	-728.50916	502.40536	896.67804	-804.18817	326.43277	911.83826	-821.89441	105.39799	946.9743	-848.57556	81.67338	1006.49774	-681.67621	51.74438	912.60547	-878.09637	678.89722	1231.84448	-902.83807	469.72833	1190.58411	-963.84265	290.74191	1195.01624	-1000.84808	100.57344	1154.64685	-1039.23596	48.27081	1098.5033	-852.7334	41.69048	1175.0011	-868.14258	1813.63989	1060.59143	-2845.06006	1033.89441	3360.17969
2	0.01	-747.50171	1756.4043	975.79694	-752.56293	1737.38867	1119.36426	-871.0683	1671.49963	961.23853	-888.28522	1649.90967	1102.38647	-922.08313	1535.94629	1034.07495	-981.82794	1263.32019	1047.8949	-784.15948	1464.14307	1025.20483	-736.94141	1291.31482	1043.83081	-983.19232	1368.48596	1106.31091	-851.64008	1502.48792	854.75513	-898.34198	1309.0188	771.59943	-925.83325	1172.16309	755.85931	-942.65814	1042.71265	735.83667	-912.16821	906.67377	757.97589	-957.46515	920.9707	726.01361	-951.81927	854.48627	718.38861	-844.01276	1509.50208	1219.01477	-851.12909	1328.70471	1324.02319	-813.35486	1187.4364	1357.95386	-755.38007	1081.75195	1377.12976	-680.31793	970.31775	1355.90015	-719.74023	957.41693	1394.65906	-666.31824	908.66235	1395.58289	-753.59912	996.25092	927.22424	-768.49408	979.24683	1181.76807	-965.4209	1045.63562	994.11066	-975.48444	1047.62988	1109.37976	-745.77466	695.26318	862.86963	-717.36798	501.63058	898.83179	-783.33514	321.2117	912.48138	-789.34515	99.38598	946.80652	-815.24146	74.52933	1006.22443	-646.18225	52.4797	913.51532	-872.91779	678.2229	1232.18262	-899.67999	469.28683	1190.76025	-962.22687	290.8454	1194.95374	-1000.63672	101.06805	1154.35876	-1039.0061	48.76862	1098.21716	-852.81915	41.69674	1175.04993	-858.12769	1813.1897	1061.25745	-2845.85278	1033.86646	3357.3645
3	0.02	-737.73944	1755.1615	976.3205	-742.25769	1736.53625	1119.77991	-861.4715	1670.53064	962.29193	-878.14752	1649.15442	1103.40039	-912.32172	1535.17444	1035.46594	-972.56256	1262.72253	1048.89294	-774.5545	1463.36133	1025.9541	-727.46814	1290.34436	1044.84497	-973.36127	1367.81726	1107.86389	-843.20782	1501.5614	855.97784	-892.63873	1309.12781	772.7735	-921.74969	1172.77966	756.44867	-940.16626	1043.49548	735.89703	-910.06494	907.26031	756.27191	-956.40637	921.99158	725.57611	-950.94458	855.51471	717.45349	-833.46582	1509.00403	1219.93494	-838.99103	1328.77747	1325.90247	-799.47943	1187.84094	1360.0907	-739.78979	1082.99158	1378.98535	-663.14502	972.90942	1357.65295	-702.03796	959.46814	1396.69629	-647.72064	911.68311	1397.39978	-744.14069	995	927.97882	-760.25397	978.01758	1182.90063	-956.21661	1044.89844	994.46045	-966.82251	1047.06018	1109.65356	-735.9364	694.47742	864.31378	-705.92059	500.60617	901.09558	-762.40948	316.41214	912.94745	-756.86011	94.32067	946.46191	-782.02917	68.00143	1005.66022	-611.06342	54.41855	914.23041	-867.76141	677.53326	1232.55994	-896.39081	468.77847	1190.86511	-960.56934	290.94873	1194.85852	-1000.09229	101.38443	1154.04114	-1038.73474	49.13916	1097.75745	-852.81567	41.65002	1175.13684	-848.05042	1812.35559	1062.17798	-2845.27783	1033.72913	3360.23486
4	0.03	-728.0625	1754.36841	976.4353	-732.06049	1735.7085	1119.99487	-851.88947	1669.53955	963.05005	-868.00549	1648.23279	1104.30176	-902.59393	1534.32446	1036.79688	-962.81036	1261.86975	1049.62866	-764.79047	1462.27258	1026.55872	-718.04114	1289.1687	1045.66589	-963.64246	1367.19714	1109.30273	-834.63184	1500.55847	857.1076	-886.63165	1309.13501	773.67853	-917.38361	1173.35278	756.92316	-937.1676	1044.20166	736.00879	-907.68146	907.79645	754.92236	-954.52399	922.68793	725.45618	-949.88135	856.638	716.29987	-822.8877	1508.28894	1220.63647	-826.97632	1328.62683	1327.36584	-785.81097	1188.36035	1362.3269	-724.39063	1084.30029	1380.91321	-646.04016	975.49774	1359.31116	-684.55396	961.43842	1398.58862	-629.57104	914.70184	1398.98975	-734.23663	993.64264	928.46802	-750.97168	977.099	1183.60669	-946.88342	1043.85669	994.6842	-958.31763	1046.29956	1109.78577	-726.16241	693.0365	865.77692	-694.64191	499.50934	902.72174	-741.7179	312.14066	913.43683	-725.01874	90.24464	945.97827	-749.24188	62.74205	1004.87665	-576.77417	57.45728	914.90881	-862.56555	676.83362	1232.90979	-893.04156	468.32532	1190.9491	-958.86908	291.1106	1194.67981	-999.65729	101.79889	1153.82117	-1038.40027	49.6714	1097.24768	-852.75616	41.61847	1175.25256	-838.01184	1811.44922	1062.53467	-2845.10791	1033.99414	3360.21191
